<svg version="1.1" id="Layer_1" xmlns="http://www.w3.org/2000/svg" xmlns:xlink="http://www.w3.org/1999/xlink" x="0px" y="0px"
	 width="100%" viewBox="0 0 1024 1024" enable-background="new 0 0 1024 1024" xml:space="preserve">
<path fill="#252F35" opacity="1.000000" stroke="none"
	d="
M570.000000,1025.000000
	C380.000000,1025.000000 190.500000,1025.000000 1.000000,1025.000000
	C1.000000,683.666687 1.000000,342.333344 1.000000,1.000000
	C342.333344,1.000000 683.666687,1.000000 1025.000000,1.000000
	C1025.000000,342.333344 1025.000000,683.666687 1025.000000,1025.000000
	C873.500000,1025.000000 722.000000,1025.000000 570.000000,1025.000000
M847.143250,480.306091
	C847.126709,479.515869 847.110168,478.725677 847.555908,477.399933
	C847.137085,475.624817 846.718262,473.849731 846.119202,471.216187
	C842.499268,442.894379 836.556152,415.076202 825.676697,388.628540
	C819.363708,373.281708 811.974915,358.322021 804.183777,343.659088
	C799.392517,334.641998 789.283386,333.880524 781.711853,340.760529
	C775.176208,346.699219 774.025818,353.954834 778.725220,362.414154
	C792.864746,387.866760 804.177795,414.388641 809.389160,443.679230
	C810.190308,448.788300 810.858826,453.922913 811.836914,458.997894
	C812.545471,462.674225 813.664490,466.271454 814.749634,470.517365
	C814.755432,470.727722 814.761292,470.938049 814.349426,471.752045
	C814.796631,474.141754 815.243774,476.531464 815.854858,479.632568
	C815.859619,480.118073 815.864441,480.603577 815.389282,481.729584
	C815.590332,487.337494 816.023071,492.948608 815.944946,498.552612
	C815.773743,510.840973 815.834961,523.163940 814.882874,535.401306
	C813.908386,547.926208 811.797058,560.360901 810.278259,572.846619
	C809.952637,575.523560 810.034851,578.250122 809.944763,581.753967
	C806.839417,592.796814 804.606934,604.183228 800.427307,614.803223
	C793.920593,631.335876 786.188782,647.392517 778.785217,663.563416
	C774.369446,673.208313 776.965332,682.773010 785.561340,687.120361
	C793.253052,691.010315 800.990112,688.013062 805.998779,678.526978
	C811.589172,667.939148 817.098267,657.269897 821.893738,646.308350
	C833.560608,619.640198 840.693176,591.627258 846.115479,562.627441
	C846.117859,561.111755 846.120239,559.596069 846.057739,557.442993
	C846.223816,556.621033 846.389954,555.799011 847.207886,554.578918
	C847.186768,552.750977 847.165710,550.923096 847.090393,548.369385
	C847.150208,547.889282 847.210022,547.409180 847.963867,546.663391
	C848.283325,546.112061 848.869812,545.567139 848.883423,545.008423
	C849.286133,528.392029 849.665588,511.774658 849.906372,495.155426
	C849.921265,494.128479 848.773376,493.084686 848.041077,491.350128
	C848.057556,490.878387 848.074036,490.406616 848.572632,489.335388
	C848.153137,486.583496 847.733643,483.831604 847.143250,480.306091
M902.956665,532.814453
	C900.969727,550.659302 899.702698,568.620178 896.847229,586.324951
	C890.757996,624.081055 878.835083,660.008850 860.329407,693.589111
	C854.787109,703.646362 848.623169,713.359070 842.924072,723.332520
	C837.645874,732.569336 840.063049,741.446960 849.085938,746.931702
	C856.208008,751.261047 863.298401,748.689331 869.024353,739.895386
	C886.835876,712.540649 900.974854,683.393005 911.601013,652.550598
	C920.188049,627.626404 926.440857,602.124146 930.112366,575.182861
	C930.335571,574.212280 930.642883,573.252563 930.770020,572.269531
	C935.383545,536.585327 936.505981,500.865601 931.814148,464.532471
	C931.784851,464.348907 931.755554,464.165314 931.789490,463.153900
	C930.508240,455.110596 929.226990,447.067261 927.935242,438.334595
	C927.852661,437.883209 927.770081,437.431824 927.669861,436.197388
	C926.742310,431.814423 925.814758,427.431458 924.863892,422.252258
	C913.994629,372.621033 894.712952,326.437012 867.903503,283.344574
	C864.673157,278.152313 859.967773,274.671387 853.816406,275.869354
	C847.160339,277.165588 842.166992,281.234467 839.947449,288.157349
	C837.633972,295.373444 841.566895,300.813477 844.991394,306.235504
	C868.916687,344.117432 884.904541,385.193420 894.452271,428.843506
	C899.296265,450.989380 902.115540,473.422791 902.378296,496.749573
	C902.250488,505.547668 902.040955,514.345764 902.040955,523.143860
	C902.040955,526.066284 902.579102,528.988708 902.956665,532.814453
M461.655426,863.899353
	C462.108704,863.920654 462.562012,863.942017 463.768768,864.216309
	C468.509277,864.771606 473.249786,865.326904 478.656860,865.978943
	C479.105438,865.984131 479.554047,865.989319 480.818268,866.149597
	C497.868073,866.411621 514.917908,866.673645 532.650330,866.976990
	C533.103760,866.936707 533.557251,866.896423 534.910583,866.918091
	C549.605103,864.940979 564.299622,862.963806 579.800476,860.964172
	C598.757629,855.300354 618.142151,850.760193 636.585266,843.744995
	C678.462219,827.816101 715.852966,804.391113 747.780334,772.673218
	C754.953430,765.547180 754.905212,756.598083 747.829773,749.264526
	C740.962646,742.146790 733.581482,742.020752 726.032593,749.483337
	C700.477600,774.745850 670.894958,793.875305 638.150452,808.460205
	C584.355286,832.421326 528.367737,841.325745 469.957489,833.115112
	C413.384888,825.162842 362.924805,802.830322 318.427856,767.071777
	C311.818268,761.760132 305.733551,755.794373 299.418488,750.117371
	C294.966339,746.115051 290.034271,743.313171 284.015076,746.099060
	C274.766235,750.379883 266.603302,762.587891 278.225342,774.057800
	C295.775574,791.378479 315.281799,806.044983 336.256134,818.824646
	C371.478210,840.285583 409.405121,854.700012 450.810883,862.084229
	C454.202118,862.649048 457.593353,863.213928 461.655426,863.899353
M757.109863,454.368652
	C752.670776,430.705902 743.661255,408.730896 732.083923,387.779694
	C709.163879,346.301819 676.659485,314.133179 636.775757,288.805023
	C589.417419,258.730103 538.057190,247.536148 482.625336,254.225647
	C442.715851,259.041901 406.794800,274.263000 374.252014,297.453461
	C335.170746,325.303314 305.392761,361.009857 285.625702,404.877167
	C263.036316,455.007782 257.778625,507.326965 266.723389,561.191406
	C274.200226,606.216064 293.009033,646.184875 322.213379,681.297791
	C345.879456,709.751953 374.109253,732.432922 407.235413,748.928101
	C435.019409,762.763184 464.479950,770.186707 495.463165,772.262146
	C525.218750,774.255310 554.421082,771.538452 582.756165,762.410950
	C650.753845,740.507141 700.179871,696.453064 733.405518,633.798523
	C748.855713,604.663635 757.884216,573.499084 761.281738,540.607544
	C764.249146,511.880371 763.231445,483.452362 757.109863,454.368652
M467.178467,193.674561
	C502.765289,188.399628 538.285828,189.302994 573.402954,196.692566
	C631.036804,208.820236 682.079285,234.108459 724.790710,275.227570
	C729.747620,279.999664 735.534302,282.404968 742.039185,279.204834
	C748.507812,276.022552 753.002808,270.720459 752.765686,263.103485
	C752.671570,260.081390 751.441101,256.308441 749.361755,254.273361
	C741.278748,246.362717 733.126160,238.381897 724.141174,231.557266
	C669.622803,190.147095 609.060913,163.806808 540.083679,158.823532
	C509.546600,156.617371 479.207855,157.715683 449.097473,163.551361
	C399.724579,173.120331 355.018646,193.627670 314.037476,222.278336
	C300.990875,231.399445 288.986237,242.129471 277.187500,252.873016
	C269.976318,259.439301 270.836090,268.355072 277.810089,275.366302
	C284.131836,281.721893 292.038544,281.941376 299.089142,275.142548
	C315.019562,259.781006 333.002045,247.236572 351.636017,235.477448
	C386.852814,213.253479 425.379089,200.243301 467.178467,193.674561
M102.250900,606.225098
	C102.341347,606.545776 102.449036,606.862732 102.519798,607.187683
	C112.796173,654.378418 131.164429,698.236755 157.224533,738.838623
	C159.589142,742.522644 163.525238,745.889709 167.506744,747.681580
	C173.434082,750.349365 178.521072,746.856262 182.472336,742.454346
	C187.081970,737.318909 187.598190,731.163086 184.544342,725.228638
	C180.206146,716.798401 175.231033,708.696960 170.560669,700.436523
	C141.767899,649.511719 126.604713,594.547485 123.297363,536.387878
	C121.393456,502.907898 123.721336,469.520508 129.940918,436.477081
	C137.107773,398.400970 149.287186,362.107544 168.264511,328.226288
	C173.877686,318.204803 179.937988,308.426208 185.316635,298.283478
	C189.500092,290.394623 185.894119,281.775360 177.125122,277.005524
	C168.883682,272.522644 163.971375,273.926910 158.744965,282.773193
	C151.294357,295.384186 143.449371,307.816864 136.868515,320.877777
	C104.560112,384.999878 89.423141,452.966797 91.783951,524.842468
	C92.677910,552.059509 96.184395,578.864319 102.250900,606.225098
M188.800079,425.263794
	C178.004639,467.314484 175.601776,509.927094 179.808762,553.061218
	C184.190521,597.987244 198.053787,639.849487 219.693329,679.284485
	C224.216782,687.527893 231.081894,690.528259 238.650726,687.683472
	C248.092361,684.134827 251.291199,678.277527 248.885437,668.520447
	C248.376495,666.456299 247.326111,664.488647 246.309784,662.591919
	C225.348160,623.472290 212.734390,581.983398 209.681702,537.549988
	C207.498444,505.771332 209.200943,474.370819 216.133713,443.278625
	C222.552841,414.490082 232.547119,387.097412 247.638809,361.620819
	C252.772476,352.954559 249.656738,343.670563 240.716660,338.784546
	C233.178238,334.664581 225.331558,337.649292 220.358597,346.374634
	C206.336594,370.977142 196.098907,397.092346 188.800079,425.263794
z"/>
<path fill="#217E82" opacity="1.000000" stroke="none"
	d="
M757.193848,454.783813
	C763.231445,483.452362 764.249146,511.880371 761.281738,540.607544
	C757.884216,573.499084 748.855713,604.663635 733.405518,633.798523
	C700.179871,696.453064 650.753845,740.507141 582.756165,762.410950
	C554.421082,771.538452 525.218750,774.255310 495.463165,772.262146
	C464.479950,770.186707 435.019409,762.763184 407.235413,748.928101
	C374.109253,732.432922 345.879456,709.751953 322.213379,681.297791
	C293.009033,646.184875 274.200226,606.216064 266.723389,561.191406
	C257.778625,507.326965 263.036316,455.007782 285.625702,404.877167
	C305.392761,361.009857 335.170746,325.303314 374.252014,297.453461
	C406.794800,274.263000 442.715851,259.041901 482.625336,254.225647
	C538.057190,247.536148 589.417419,258.730103 636.775757,288.805023
	C676.659485,314.133179 709.163879,346.301819 732.083923,387.779694
	C743.661255,408.730896 752.670776,430.705902 757.193848,454.783813
M430.781952,721.793945
	C471.927032,738.215454 514.315979,743.096069 557.601196,733.120178
	C615.659607,719.739502 660.930298,687.367126 693.132324,637.284790
	C726.612244,585.215027 737.219849,527.801025 725.174255,467.786407
	C710.152344,392.943237 666.723511,338.591858 596.885498,306.559998
	C556.450012,288.013885 514.043884,283.851471 470.483612,292.434021
	C419.958832,302.388763 379.506195,329.375824 346.943268,368.301636
	C315.915375,405.392517 300.246490,448.993011 297.203430,497.030212
	C294.569275,538.613098 300.667175,578.847412 319.383911,616.466003
	C343.461945,664.860168 380.495087,699.853088 430.781952,721.793945
z"/>
<path fill="#217E81" opacity="1.000000" stroke="none"
	d="
M466.748108,193.749908
	C425.379089,200.243301 386.852814,213.253479 351.636017,235.477448
	C333.002045,247.236572 315.019562,259.781006 299.089142,275.142548
	C292.038544,281.941376 284.131836,281.721893 277.810089,275.366302
	C270.836090,268.355072 269.976318,259.439301 277.187500,252.873016
	C288.986237,242.129471 300.990875,231.399445 314.037476,222.278336
	C355.018646,193.627670 399.724579,173.120331 449.097473,163.551361
	C479.207855,157.715683 509.546600,156.617371 540.083679,158.823532
	C609.060913,163.806808 669.622803,190.147095 724.141174,231.557266
	C733.126160,238.381897 741.278748,246.362717 749.361755,254.273361
	C751.441101,256.308441 752.671570,260.081390 752.765686,263.103485
	C753.002808,270.720459 748.507812,276.022552 742.039185,279.204834
	C735.534302,282.404968 729.747620,279.999664 724.790710,275.227570
	C682.079285,234.108459 631.036804,208.820236 573.402954,196.692566
	C538.285828,189.302994 502.765289,188.399628 466.748108,193.749908
z"/>
<path fill="#217E81" opacity="1.000000" stroke="none"
	d="
M450.046112,861.893738
	C409.405121,854.700012 371.478210,840.285583 336.256134,818.824646
	C315.281799,806.044983 295.775574,791.378479 278.225342,774.057800
	C266.603302,762.587891 274.766235,750.379883 284.015076,746.099060
	C290.034271,743.313171 294.966339,746.115051 299.418488,750.117371
	C305.733551,755.794373 311.818268,761.760132 318.427856,767.071777
	C362.924805,802.830322 413.384888,825.162842 469.957489,833.115112
	C528.367737,841.325745 584.355286,832.421326 638.150452,808.460205
	C670.894958,793.875305 700.477600,774.745850 726.032593,749.483337
	C733.581482,742.020752 740.962646,742.146790 747.829773,749.264526
	C754.905212,756.598083 754.953430,765.547180 747.780334,772.673218
	C715.852966,804.391113 678.462219,827.816101 636.585266,843.744995
	C618.142151,850.760193 598.757629,855.300354 579.116882,860.729370
	C578.123962,860.379700 577.799377,860.134338 577.507568,860.168518
	C563.707825,861.784973 549.907898,863.401733 536.121826,865.128845
	C535.357971,865.224548 534.711731,866.258789 534.010681,866.856140
	C533.557251,866.896423 533.103760,866.936707 531.983215,866.707397
	C530.342590,866.292603 529.371765,866.042908 528.395142,866.017822
	C514.500122,865.661255 500.605194,865.284302 486.707855,865.053162
	C484.478577,865.016113 482.237976,865.663452 480.002625,865.994507
	C479.554047,865.989319 479.105438,865.984131 478.197418,865.574219
	C472.830414,864.767456 467.922852,864.365417 463.015289,863.963379
	C462.562012,863.942017 462.108704,863.920654 461.197632,863.505005
	C457.175232,862.704956 453.610687,862.299377 450.046112,861.893738
z"/>
<path fill="#217E82" opacity="1.000000" stroke="none"
	d="
M102.168259,605.813477
	C96.184395,578.864319 92.677910,552.059509 91.783951,524.842468
	C89.423141,452.966797 104.560112,384.999878 136.868515,320.877777
	C143.449371,307.816864 151.294357,295.384186 158.744965,282.773193
	C163.971375,273.926910 168.883682,272.522644 177.125122,277.005524
	C185.894119,281.775360 189.500092,290.394623 185.316635,298.283478
	C179.937988,308.426208 173.877686,318.204803 168.264511,328.226288
	C149.287186,362.107544 137.107773,398.400970 129.940918,436.477081
	C123.721336,469.520508 121.393456,502.907898 123.297363,536.387878
	C126.604713,594.547485 141.767899,649.511719 170.560669,700.436523
	C175.231033,708.696960 180.206146,716.798401 184.544342,725.228638
	C187.598190,731.163086 187.081970,737.318909 182.472336,742.454346
	C178.521072,746.856262 173.434082,750.349365 167.506744,747.681580
	C163.525238,745.889709 159.589142,742.522644 157.224533,738.838623
	C131.164429,698.236755 112.796173,654.378418 102.519798,607.187683
	C102.449036,606.862732 102.341347,606.545776 102.168259,605.813477
z"/>
<path fill="#217E82" opacity="1.000000" stroke="none"
	d="
M902.854187,496.098846
	C902.115540,473.422791 899.296265,450.989380 894.452271,428.843506
	C884.904541,385.193420 868.916687,344.117432 844.991394,306.235504
	C841.566895,300.813477 837.633972,295.373444 839.947449,288.157349
	C842.166992,281.234467 847.160339,277.165588 853.816406,275.869354
	C859.967773,274.671387 864.673157,278.152313 867.903503,283.344574
	C894.712952,326.437012 913.994629,372.621033 924.647095,422.943481
	C925.515991,428.083313 926.601746,432.531860 927.687500,436.980438
	C927.770081,437.431824 927.852661,437.883209 927.699097,438.972168
	C928.188904,445.882965 928.806274,452.171783 929.705872,458.420013
	C929.981018,460.331238 931.031067,462.130951 931.726257,463.981720
	C931.755554,464.165314 931.784851,464.348907 931.592407,465.138977
	C931.300293,468.716949 931.010498,471.702637 931.202759,474.656982
	C931.685608,482.074402 932.749634,489.468658 932.932617,496.888153
	C933.505066,520.098572 932.808411,543.270935 930.027283,566.355103
	C929.646240,569.518250 929.948303,572.763611 929.934082,575.970947
	C926.440857,602.124146 920.188049,627.626404 911.601013,652.550598
	C900.974854,683.393005 886.835876,712.540649 869.024353,739.895386
	C863.298401,748.689331 856.208008,751.261047 849.085938,746.931702
	C840.063049,741.446960 837.645874,732.569336 842.924072,723.332520
	C848.623169,713.359070 854.787109,703.646362 860.329407,693.589111
	C878.835083,660.008850 890.757996,624.081055 896.847229,586.324951
	C899.702698,568.620178 900.969727,550.659302 902.955261,531.903625
	C902.920593,519.361511 902.887390,507.730164 902.854187,496.098846
z"/>
<path fill="#217E82" opacity="1.000000" stroke="none"
	d="
M847.269775,546.929077
	C847.210022,547.409180 847.150208,547.889282 847.059875,549.147461
	C846.871582,551.609436 846.713745,553.293213 846.556030,554.977051
	C846.389954,555.799011 846.223816,556.621033 846.024414,558.165649
	C845.814392,560.250671 845.637695,561.613037 845.461060,562.975464
	C840.693176,591.627258 833.560608,619.640198 821.893738,646.308350
	C817.098267,657.269897 811.589172,667.939148 805.998779,678.526978
	C800.990112,688.013062 793.253052,691.010315 785.561340,687.120361
	C776.965332,682.773010 774.369446,673.208313 778.785217,663.563416
	C786.188782,647.392517 793.920593,631.335876 800.427307,614.803223
	C804.606934,604.183228 806.839417,592.796814 810.076233,580.995361
	C817.505798,547.496460 819.721863,514.466064 815.869202,481.089081
	C815.864441,480.603577 815.859619,480.118073 815.798462,478.886047
	C815.417053,475.809174 815.092041,473.478790 814.767090,471.148407
	C814.761292,470.938049 814.755432,470.727722 814.667847,469.820862
	C813.004761,460.449554 811.423462,451.774750 809.842163,443.099945
	C804.177795,414.388641 792.864746,387.866760 778.725220,362.414154
	C774.025818,353.954834 775.176208,346.699219 781.711853,340.760529
	C789.283386,333.880524 799.392517,334.641998 804.183777,343.659088
	C811.974915,358.322021 819.363708,373.281708 825.676697,388.628540
	C836.556152,415.076202 842.499268,442.894379 846.192627,472.014008
	C846.541870,474.519714 846.817749,476.227570 847.093628,477.935455
	C847.110168,478.725677 847.126709,479.515869 847.201904,481.091736
	C847.537292,484.563202 847.813904,487.249054 848.090515,489.934875
	C848.074036,490.406616 848.057556,490.878387 848.079590,492.150421
	C847.835327,510.943512 847.552551,528.936279 847.269775,546.929077
z"/>
<path fill="#217E82" opacity="1.000000" stroke="none"
	d="
M188.887589,424.863403
	C196.098907,397.092346 206.336594,370.977142 220.358597,346.374634
	C225.331558,337.649292 233.178238,334.664581 240.716660,338.784546
	C249.656738,343.670563 252.772476,352.954559 247.638809,361.620819
	C232.547119,387.097412 222.552841,414.490082 216.133713,443.278625
	C209.200943,474.370819 207.498444,505.771332 209.681702,537.549988
	C212.734390,581.983398 225.348160,623.472290 246.309784,662.591919
	C247.326111,664.488647 248.376495,666.456299 248.885437,668.520447
	C251.291199,678.277527 248.092361,684.134827 238.650726,687.683472
	C231.081894,690.528259 224.216782,687.527893 219.693329,679.284485
	C198.053787,639.849487 184.190521,597.987244 179.808762,553.061218
	C175.601776,509.927094 178.004639,467.314484 188.887589,424.863403
z"/>
<path fill="#217E82" opacity="1.000000" stroke="none"
	d="
M930.023193,575.576904
	C929.948303,572.763611 929.646240,569.518250 930.027283,566.355103
	C932.808411,543.270935 933.505066,520.098572 932.932617,496.888153
	C932.749634,489.468658 931.685608,482.074402 931.202759,474.656982
	C931.010498,471.702637 931.300293,468.716949 931.591370,465.417847
	C936.505981,500.865601 935.383545,536.585327 930.770020,572.269531
	C930.642883,573.252563 930.335571,574.212280 930.023193,575.576904
z"/>
<path fill="#271D24" opacity="1.000000" stroke="none"
	d="
M815.629272,481.409332
	C819.721863,514.466064 817.505798,547.496460 810.068481,580.595215
	C810.034851,578.250122 809.952637,575.523560 810.278259,572.846619
	C811.797058,560.360901 813.908386,547.926208 814.882874,535.401306
	C815.834961,523.163940 815.773743,510.840973 815.944946,498.552612
	C816.023071,492.948608 815.590332,487.337494 815.629272,481.409332
z"/>
<path fill="#217E82" opacity="1.000000" stroke="none"
	d="
M480.410461,866.072021
	C482.237976,865.663452 484.478577,865.016113 486.707855,865.053162
	C500.605194,865.284302 514.500122,865.661255 528.395142,866.017822
	C529.371765,866.042908 530.342590,866.292603 531.641907,866.686768
	C514.917908,866.673645 497.868073,866.411621 480.410461,866.072021
z"/>
<path fill="#217E82" opacity="1.000000" stroke="none"
	d="
M534.460632,866.887085
	C534.711731,866.258789 535.357971,865.224548 536.121826,865.128845
	C549.907898,863.401733 563.707825,861.784973 577.507568,860.168518
	C577.799377,860.134338 578.123962,860.379700 578.713745,860.740662
	C564.299622,862.963806 549.605103,864.940979 534.460632,866.887085
z"/>
<path fill="#271D24" opacity="1.000000" stroke="none"
	d="
M847.616821,546.796265
	C847.552551,528.936279 847.835327,510.943512 848.142273,492.499725
	C848.773376,493.084686 849.921265,494.128479 849.906372,495.155426
	C849.665588,511.774658 849.286133,528.392029 848.883423,545.008423
	C848.869812,545.567139 848.283325,546.112061 847.616821,546.796265
z"/>
<path fill="#217E82" opacity="1.000000" stroke="none"
	d="
M931.757874,463.567810
	C931.031067,462.130951 929.981018,460.331238 929.705872,458.420013
	C928.806274,452.171783 928.188904,445.882965 927.704346,439.316833
	C929.226990,447.067261 930.508240,455.110596 931.757874,463.567810
z"/>
<path fill="#271D24" opacity="1.000000" stroke="none"
	d="
M809.615662,443.389587
	C811.423462,451.774750 813.004761,460.449554 814.593262,469.514160
	C813.664490,466.271454 812.545471,462.674225 811.836914,458.997894
	C810.858826,453.922913 810.190308,448.788300 809.615662,443.389587
z"/>
<path fill="#271D24" opacity="1.000000" stroke="none"
	d="
M902.616211,496.424194
	C902.887390,507.730164 902.920593,519.361511 902.912537,531.451965
	C902.579102,528.988708 902.040955,526.066284 902.040955,523.143860
	C902.040955,514.345764 902.250488,505.547668 902.616211,496.424194
z"/>
<path fill="#217E82" opacity="1.000000" stroke="none"
	d="
M463.392029,864.089844
	C467.922852,864.365417 472.830414,864.767456 477.864136,865.525818
	C473.249786,865.326904 468.509277,864.771606 463.392029,864.089844
z"/>
<path fill="#217E82" opacity="1.000000" stroke="none"
	d="
M927.678711,436.588928
	C926.601746,432.531860 925.515991,428.083313 924.658691,423.341614
	C925.814758,427.431458 926.742310,431.814423 927.678711,436.588928
z"/>
<path fill="#217E82" opacity="1.000000" stroke="none"
	d="
M450.428497,861.989014
	C453.610687,862.299377 457.175232,862.704956 460.862183,863.444702
	C457.593353,863.213928 454.202118,862.649048 450.428497,861.989014
z"/>
<path fill="#271D24" opacity="1.000000" stroke="none"
	d="
M848.331543,489.635132
	C847.813904,487.249054 847.537292,484.563202 847.287415,481.478546
	C847.733643,483.831604 848.153137,486.583496 848.331543,489.635132
z"/>
<path fill="#271D24" opacity="1.000000" stroke="none"
	d="
M814.558228,471.450226
	C815.092041,473.478790 815.417053,475.809174 815.716431,478.530334
	C815.243774,476.531464 814.796631,474.141754 814.558228,471.450226
z"/>
<path fill="#271D24" opacity="1.000000" stroke="none"
	d="
M847.324768,477.667694
	C846.817749,476.227570 846.541870,474.519714 846.282715,472.443237
	C846.718262,473.849731 847.137085,475.624817 847.324768,477.667694
z"/>
<path fill="#271D24" opacity="1.000000" stroke="none"
	d="
M846.881958,554.777954
	C846.713745,553.293213 846.871582,551.609436 847.086975,549.510376
	C847.165710,550.923096 847.186768,552.750977 846.881958,554.777954
z"/>
<path fill="#271D24" opacity="1.000000" stroke="none"
	d="
M845.788269,562.801453
	C845.637695,561.613037 845.814392,560.250671 846.056763,558.484314
	C846.120239,559.596069 846.117859,561.111755 845.788269,562.801453
z"/>
<path fill="#252F35" opacity="1.000000" stroke="none"
	d="
M430.432068,721.640137
	C380.495087,699.853088 343.461945,664.860168 319.383911,616.466003
	C300.667175,578.847412 294.569275,538.613098 297.203430,497.030212
	C300.246490,448.993011 315.915375,405.392517 346.943268,368.301636
	C379.506195,329.375824 419.958832,302.388763 470.483612,292.434021
	C514.043884,283.851471 556.450012,288.013885 596.885498,306.559998
	C666.723511,338.591858 710.152344,392.943237 725.174255,467.786407
	C737.219849,527.801025 726.612244,585.215027 693.132324,637.284790
	C660.930298,687.367126 615.659607,719.739502 557.601196,733.120178
	C514.315979,743.096069 471.927032,738.215454 430.432068,721.640137
M430.568542,390.509308
	C430.568542,390.509308 430.498657,390.566162 429.892334,390.606354
	C429.624695,391.111267 429.357056,391.616150 429.016846,392.045410
	C429.016846,392.045410 429.115601,392.080505 428.422974,392.141113
	C427.245911,394.117310 426.068878,396.093536 424.403809,398.724274
	C424.269287,400.035919 424.017303,401.347565 424.016998,402.659241
	C423.998596,476.501038 423.995483,550.342834 424.039764,624.184631
	C424.040710,625.772583 424.610229,627.360107 425.290955,629.384094
	C425.817719,629.580261 426.344482,629.776428 427.165070,630.636536
	C431.768585,640.028870 441.256805,642.965515 449.796936,637.644775
	C494.703278,609.666626 539.612000,581.692322 584.515747,553.710083
	C598.873291,544.763062 613.321716,535.956238 627.536438,526.787537
	C639.216919,519.253479 639.141235,506.504395 627.676453,498.798828
	C626.713501,498.151611 625.728210,497.536560 624.740540,496.927368
	C598.349121,480.649475 571.961243,464.365631 545.561646,448.101013
	C518.052490,431.152771 490.531586,414.223450 462.918610,396.546570
	C461.235779,395.727966 459.552979,394.909332 457.942108,394.029816
	C457.942108,394.029816 457.921967,394.121918 457.825378,393.407043
	C456.813599,392.995575 455.801819,392.584137 454.875488,392.143860
	C454.875488,392.143860 454.859802,392.232666 454.570160,391.788391
	C454.238190,391.707001 453.906219,391.625641 453.565948,391.476349
	C453.565948,391.476349 453.499695,391.493378 453.489655,390.762726
	C452.268066,390.221130 451.046509,389.679535 449.903625,389.106262
	C449.903625,389.106262 449.899109,389.190979 449.578644,388.657318
	C448.999390,388.473633 448.420135,388.289948 447.912994,388.074585
	C447.912994,388.074585 447.925385,388.152374 447.652679,387.460602
	C443.037231,384.040741 438.536163,383.931976 435.090729,387.078522
	C435.090729,387.078522 435.162933,387.111206 434.533997,387.151154
	C434.061981,387.505707 433.589996,387.860229 433.104523,388.130005
	C433.104523,388.130005 433.187531,388.151764 432.570923,388.176025
	C432.270203,388.617584 431.969452,389.059143 431.592499,389.676392
	C431.592499,389.676392 431.405914,389.719421 430.960114,389.682831
	C430.639557,389.836731 430.523834,390.086060 430.568542,390.509308
z"/>
<path fill="#F9F8F6" opacity="1.000000" stroke="none"
	d="
M463.015839,397.285858
	C490.531586,414.223450 518.052490,431.152771 545.561646,448.101013
	C571.961243,464.365631 598.349121,480.649475 624.740540,496.927368
	C625.728210,497.536560 626.713501,498.151611 627.676453,498.798828
	C639.141235,506.504395 639.216919,519.253479 627.536438,526.787537
	C613.321716,535.956238 598.873291,544.763062 584.515747,553.710083
	C539.612000,581.692322 494.703278,609.666626 449.796936,637.644775
	C441.256805,642.965515 431.768585,640.028870 427.053040,629.881104
	C426.729370,627.733582 426.517731,626.341614 426.420013,624.496704
	C426.566742,573.655029 426.629578,523.266174 426.619476,472.877350
	C426.614532,448.269287 426.473785,423.661194 426.590698,398.720642
	C427.563171,396.285645 428.339386,394.183075 429.115601,392.080505
	C429.115601,392.080505 429.016846,392.045410 429.283752,391.948608
	C429.866669,391.423248 430.182678,390.994720 430.498657,390.566162
	C430.498657,390.566162 430.568542,390.509308 430.755798,390.392365
	C431.150421,390.134247 431.304718,389.948914 431.405914,389.719421
	C431.405914,389.719421 431.592499,389.676392 431.854614,389.453857
	C432.473663,388.871429 432.830597,388.511597 433.187500,388.151733
	C433.187531,388.151764 433.104523,388.130005 433.401917,388.098816
	C434.187195,387.748810 434.675049,387.429993 435.162933,387.111206
	C435.162933,387.111206 435.090729,387.078522 435.535645,387.071014
	C439.962158,387.426453 443.943756,387.789429 447.925385,388.152405
	C447.925385,388.152374 447.912994,388.074585 448.061615,388.330200
	C448.773193,388.787537 449.336151,388.989258 449.899109,389.190979
	C449.899109,389.190979 449.903625,389.106262 450.038330,389.388245
	C451.281952,390.277954 452.390808,390.885681 453.499695,391.493378
	C453.499695,391.493378 453.565948,391.476349 453.741028,391.693298
	C454.230682,392.017700 454.545258,392.125183 454.859802,392.232666
	C454.859802,392.232666 454.875488,392.143860 454.993683,392.431702
	C456.048584,393.187012 456.985260,393.654480 457.921967,394.121918
	C457.921967,394.121918 457.942108,394.029816 458.103302,394.335602
	C459.848267,395.522888 461.432068,396.404358 463.015839,397.285858
z"/>
<path fill="#303B40" opacity="1.000000" stroke="none"
	d="
M424.914520,628.947876
	C424.610229,627.360107 424.040710,625.772583 424.039764,624.184631
	C423.995483,550.342834 423.998596,476.501038 424.016998,402.659241
	C424.017303,401.347565 424.269287,400.035919 424.671875,398.621979
	C424.939972,398.519684 424.992981,398.970032 424.995605,399.442017
	C424.995148,474.953217 424.992035,549.992432 424.971497,625.423706
	C424.940857,626.859802 424.927673,627.903870 424.914520,628.947876
z"/>
<path fill="#271D24" opacity="1.000000" stroke="none"
	d="
M447.789032,387.806519
	C443.943756,387.789429 439.962158,387.426453 435.529236,387.110107
	C438.536163,383.931976 443.037231,384.040741 447.789032,387.806519
z"/>
<path fill="#271D24" opacity="1.000000" stroke="none"
	d="
M424.992981,398.970032
	C424.992981,398.970032 424.939972,398.519684 424.915894,398.294739
	C426.068878,396.093536 427.245911,394.117310 428.769287,392.110809
	C428.339386,394.183075 427.563171,396.285645 426.355835,398.742950
	C425.620819,399.006378 425.310242,398.963806 424.992981,398.970032
z"/>
<path fill="#271D24" opacity="1.000000" stroke="none"
	d="
M425.102722,629.166016
	C424.927673,627.903870 424.940857,626.859802 425.192749,625.410706
	C425.431427,625.005615 425.864594,624.912537 425.864594,624.912537
	C425.864594,624.912537 426.306091,624.949585 426.306091,624.949585
	C426.517731,626.341614 426.729370,627.733582 426.906128,629.549072
	C426.344482,629.776428 425.817719,629.580261 425.102722,629.166016
z"/>
<path fill="#271D24" opacity="1.000000" stroke="none"
	d="
M462.967224,396.916199
	C461.432068,396.404358 459.848267,395.522888 458.067322,394.366058
	C459.552979,394.909332 461.235779,395.727966 462.967224,396.916199
z"/>
<path fill="#271D24" opacity="1.000000" stroke="none"
	d="
M453.494690,391.128052
	C452.390808,390.885681 451.281952,390.277954 449.998993,389.404114
	C451.046509,389.679535 452.268066,390.221130 453.494690,391.128052
z"/>
<path fill="#271D24" opacity="1.000000" stroke="none"
	d="
M457.873657,393.764465
	C456.985260,393.654480 456.048584,393.187012 454.950958,392.446136
	C455.801819,392.584137 456.813599,392.995575 457.873657,393.764465
z"/>
<path fill="#271D24" opacity="1.000000" stroke="none"
	d="
M432.879211,388.163879
	C432.830597,388.511597 432.473663,388.871429 431.892761,389.366028
	C431.969452,389.059143 432.270203,388.617584 432.879211,388.163879
z"/>
<path fill="#271D24" opacity="1.000000" stroke="none"
	d="
M430.195496,390.586243
	C430.182678,390.994720 429.866669,391.423248 429.320068,391.986420
	C429.357056,391.616150 429.624695,391.111267 430.195496,390.586243
z"/>
<path fill="#271D24" opacity="1.000000" stroke="none"
	d="
M449.738892,388.924133
	C449.336151,388.989258 448.773193,388.787537 448.025574,388.346008
	C448.420135,388.289948 448.999390,388.473633 449.738892,388.924133
z"/>
<path fill="#271D24" opacity="1.000000" stroke="none"
	d="
M434.848450,387.131165
	C434.675049,387.429993 434.187195,387.748810 433.408691,388.141205
	C433.589996,387.860229 434.061981,387.505707 434.848450,387.131165
z"/>
<path fill="#271D24" opacity="1.000000" stroke="none"
	d="
M431.183014,389.701111
	C431.304718,389.948914 431.150421,390.134247 430.777985,390.353149
	C430.523834,390.086060 430.639557,389.836731 431.183014,389.701111
z"/>
<path fill="#271D24" opacity="1.000000" stroke="none"
	d="
M454.714966,392.010529
	C454.545258,392.125183 454.230682,392.017700 453.745178,391.727234
	C453.906219,391.625641 454.238190,391.707001 454.714966,392.010529
z"/>
<path fill="#000309" opacity="1.000000" stroke="none"
	d="
M426.419983,624.496704
	C426.306091,624.949585 425.864594,624.912537 425.864594,624.912537
	C425.864594,624.912537 425.431427,625.005615 425.210205,625.018677
	C424.992035,549.992432 424.995148,474.953217 424.995605,399.442017
	C425.310242,398.963806 425.620819,399.006378 426.159607,399.075439
	C426.473785,423.661194 426.614532,448.269287 426.619476,472.877350
	C426.629578,523.266174 426.566742,573.655029 426.419983,624.496704
z"/>
</svg>
